<?xml version="1.0" standalone="no"?>
<!DOCTYPE svg PUBLIC "-//W3C//DTD SVG 20010904//EN"
 "http://www.w3.org/TR/2001/REC-SVG-20010904/DTD/svg10.dtd">
<svg version="1.0" xmlns="http://www.w3.org/2000/svg"
 width="130.000000pt" height="130.000000pt" viewBox="0 0 130.000000 130.000000"
 preserveAspectRatio="xMidYMid meet">

<g transform="translate(0.000000,130.000000) scale(0.100000,-0.100000)"
fill="#000000" stroke="none">
<path d="M535 1223 c-101 -21 -239 -97 -306 -169 -50 -53 -101 -136 -129 -209
-31 -83 -39 -244 -15 -335 67 -259 298 -439 562 -440 158 0 303 59 413 170
111 110 170 255 170 413 -1 262 -182 496 -436 561 -57 15 -209 20 -259 9z
m285 -190 c36 -17 78 -42 94 -55 l29 -24 -57 -59 c-49 -51 -59 -58 -74 -47
-81 59 -204 70 -280 26 -99 -58 -137 -131 -130 -248 5 -77 26 -121 82 -169 82
-72 224 -77 312 -11 l31 23 58 -60 c57 -58 58 -60 39 -80 -10 -11 -52 -37 -94
-57 -71 -35 -80 -37 -175 -37 -139 0 -206 26 -295 115 -101 102 -136 189 -128
327 6 107 35 176 107 255 94 102 181 139 321 135 83 -2 103 -7 160 -34z m210
-233 c12 -29 17 -56 13 -60 -9 -9 -124 -43 -128 -38 -8 10 -45 102 -41 105 2
2 27 22 56 43 61 46 62 45 100 -50z m30 -154 c0 -96 -64 -235 -106 -228 -43 8
-45 21 -14 83 17 32 30 61 30 64 0 3 -13 5 -30 5 -32 0 -33 3 -24 63 6 35 9
38 68 56 33 10 64 16 69 14 4 -2 7 -28 7 -57z"/>
</g>
</svg>
